<svg xmlns="http://www.w3.org/2000/svg" height="122.79" width="250" viewBox="0 0 250 122.78731"><path d="m181.84 2.7158c-8.9472 0.27439-15.565 6.3223-19.617 12.346-6.3619 9.7981-19.941 44.682-26.817 79.93-3.8757 3.5302-9.2735 5.9112-12.699 7.6989-18.184 9.4941-22.355-11.107-10.228-30.468 4.5743-7.3044 14.088-6.9388 13.461 0.3697-3.7141-5.0361-10.709-2.7031-11.554 4.7179-0.42814 9.1185 19.295 11.022 19.84-6.4373 0.80369-25.955-48.08-17.875-48.885 23.736 0 0-3.2316 8.6889-11.032 10.199-5.6258 1.0929-5.6544-9.1759-2.1653-23.736 2.8993-13.332 2.8348-11.137 5.6628-23.103 2.103-8.876 11.878-43.91 12.366-46.837 0.477-2.9216-1.262-5.75-4.841-6.5837-2.899-0.676-6.605-0.9628-10.627 0.9976-4.372 2.1331-5.78 6.6901-6.303 9.3831-5.46 21.925-7.719 27.713-11.595 44.622-2.024 8.653-9.459 45.801-21.518 44.451-6.298-0.7-6.776-7.367-3.861-20.38 4.698-18.275 9.641-32.902 13.033-47.789 5.115-19.458-6.286-38.412-29.927-28.384-14.144 5.998-15.366 28.599-6.5141 28.49 5.0099-0.06009 4.1503-6.2745 4.5184-10.251 1.0027-5.6934 4.1356-8.2349 7.9513-7.9981 5.6748 1.4797 6.0456 5.4344 4.2955 16.296-3.7216 12.66-8.8787 29.442-13.72 51.136-8.0705 36.576 15.486 37.973 26.242 33.37 6.2306-2.6664 8.9292-5.1938 13.15-13.561 4.7885 22.21 25.248 17.39 37.438 1.5374 2.0994 7.3384 8.9569 12.189 14.782 13.004 15.135 2.9368 28.701-8.4975 33.166-12.734 3.2712 22.297 32.694 12.959 41.633 0.11149 9.3252 21.347 26.894 12.85 31.787-0.17017-0.12015 13.388 10.023 16.63 20.468 10.997 6.099-3.0609 7.3098-4.0749 15.016-11.413 5.3293-5.3894 2.7988-16.296-10.117-5.0406-4.2062 3.669-13.144 7.4297-7.7692-6.3081 1.1379-3.3986 10.62-26.695 11.202-28.795 5.8737-15.987-15.755-12.589-18.696-0.66897-14.031-25.921-45.262 3.7751-44.907 29.546 0 0-10.759 11.74-17.857 9.6295-7.098-2.1069-0.16431-22.815-0.16431-22.815 17.482-18.293 28.676-38.757 33.202-48.624 7.409-15.927 9.1786-30.099-5.9728-30.438-0.61592-0.03575-1.2288-0.04296-1.8237-0.02464zm4.2132 13.191c1.8223 0.29668 2.2634 3.4858 0.0938 9.0311-7.0418 17.971-16.258 27.442-22.762 37.003 0.11267-0.71731 5.8557-23.386 16.495-41.218 2.5024-3.5308 4.7557-5.0484 6.1732-4.8176zm23.789 50.916c3.5669 0.13343 5.3536 4.8645 4.0608 10.633-0.41687 1.859-8.0159 20.245-8.0159 20.245-3.2448 5.9939-6.5653 7.4775-9.6824 6.8537-4.5292-1.4046-3.7796-7.9792-2.3824-14.424 3.1021-14.624 10.46-20.98 11.906-21.776 1.537-1.1079 2.9245-1.576 4.1134-1.5316z" stroke="#f2a900" stroke-width="3.0306" fill="#2d68c4"/></svg>
