<?xml version="1.0" encoding="UTF-8"?>
<svg xmlns="http://www.w3.org/2000/svg" xmlns:xlink="http://www.w3.org/1999/xlink" width="136.642pt" height="61.2031pt" viewBox="0 0 136.642 61.2031" version="1.1">
<g id="surface1">
<path style=" stroke:none;fill-rule:nonzero;fill:rgb(65.141296%,57.684326%,28.713989%);fill-opacity:1;" d="M 24.984375 29.886719 L 21.382812 29.886719 L 21.054688 28.015625 C 19.585938 29.671875 17.066406 30.246094 15.085938 30.246094 C 8.605469 30.246094 4.40625 26.285156 4.40625 21.320312 C 4.40625 16.351562 8.605469 12.390625 15.085938 12.390625 C 19.523438 12.390625 24.265625 14.285156 24.773438 18.582031 L 19.195312 18.582031 C 19.015625 17.117188 17.214844 16.230469 14.964844 16.230469 C 11.367188 16.230469 9.984375 18.773438 9.984375 21.320312 C 9.984375 23.863281 11.367188 26.40625 14.964844 26.40625 C 17.726562 26.40625 19.585938 25.375 19.882812 23.8125 L 15.984375 23.8125 L 15.984375 20.5 L 24.984375 20.5 Z M 24.984375 29.886719 "/>
<path style=" stroke:none;fill-rule:nonzero;fill:rgb(65.141296%,57.684326%,28.713989%);fill-opacity:1;" d="M 37.519531 22.375 C 37.429688 20.980469 36.199219 19.828125 34.488281 19.828125 C 32.691406 19.828125 31.488281 20.859375 31.191406 22.375 Z M 31.191406 24.652344 C 31.28125 26.359375 32.511719 27.484375 34.671875 27.484375 C 35.898438 27.484375 37.101562 27.03125 37.578125 26.117188 L 42.351562 26.117188 C 41.421875 29 38.089844 30.246094 34.609375 30.246094 C 29.539062 30.246094 26.089844 27.796875 26.089844 23.621094 C 26.089844 19.804688 29.898438 17.070312 34.488281 17.070312 C 40.070312 17.070312 42.859375 20.429688 42.621094 24.652344 Z M 31.191406 24.652344 "/>
<path style=" stroke:none;fill-rule:nonzero;fill:rgb(65.141296%,57.684326%,28.713989%);fill-opacity:1;" d="M 51.605469 27.125 C 53.976562 27.125 54.726562 25.253906 54.726562 23.667969 C 54.726562 22.085938 53.976562 20.191406 51.605469 20.191406 C 49.234375 20.191406 48.515625 22.085938 48.515625 23.667969 C 48.515625 25.253906 49.234375 27.125 51.605469 27.125 M 51.605469 17.070312 C 56.433594 17.070312 59.824219 19.925781 59.824219 23.667969 C 59.824219 27.414062 56.433594 30.246094 51.605469 30.246094 C 46.777344 30.246094 43.414062 27.414062 43.414062 23.667969 C 43.414062 19.925781 46.777344 17.070312 51.605469 17.070312 "/>
<path style=" stroke:none;fill-rule:nonzero;fill:rgb(65.141296%,57.684326%,28.713989%);fill-opacity:1;" d="M 60.671875 17.429688 L 65.621094 17.429688 L 65.621094 19.613281 L 65.679688 19.613281 C 66.429688 18.03125 68.171875 17.191406 70.359375 17.191406 C 70.75 17.191406 71.171875 17.214844 71.558594 17.285156 L 71.558594 21.003906 C 70.902344 20.863281 70.300781 20.765625 69.609375 20.765625 C 67.089844 20.765625 65.769531 22.160156 65.769531 23.71875 L 65.769531 29.886719 L 60.671875 29.886719 Z M 60.671875 17.429688 "/>
<path style=" stroke:none;fill-rule:nonzero;fill:rgb(65.141296%,57.684326%,28.713989%);fill-opacity:1;" d="M 79.933594 20.191406 C 77.683594 20.191406 76.964844 21.773438 76.964844 23.308594 C 76.964844 24.773438 77.804688 26.238281 79.902344 26.238281 C 82.0625 26.238281 82.992188 24.894531 82.992188 23.335938 C 82.992188 21.75 82.214844 20.191406 79.933594 20.191406 M 87.824219 28.375 C 87.824219 30.414062 87.34375 34.253906 80.054688 34.253906 C 76.421875 34.253906 73.003906 33.605469 72.402344 30.269531 L 77.503906 30.269531 C 77.625 30.820312 77.894531 31.160156 78.375 31.351562 C 78.824219 31.542969 79.457031 31.613281 80.234375 31.613281 C 82.664062 31.613281 82.902344 30.246094 82.902344 28.710938 L 82.902344 27.535156 L 82.84375 27.535156 C 81.914062 28.6875 80.355469 29.359375 78.707031 29.359375 C 73.992188 29.359375 71.863281 26.667969 71.863281 23.167969 C 71.863281 19.855469 74.292969 17.070312 78.707031 17.070312 C 80.5625 17.070312 81.972656 17.71875 82.875 18.988281 L 82.933594 18.988281 L 82.933594 17.429688 L 87.824219 17.429688 Z M 87.824219 28.375 "/>
<path style=" stroke:none;fill-rule:nonzero;fill:rgb(65.141296%,57.684326%,28.713989%);fill-opacity:1;" d="M 94.867188 15.867188 L 89.769531 15.867188 L 89.769531 12.75 L 94.867188 12.75 Z M 89.769531 17.429688 L 94.867188 17.429688 L 94.867188 29.886719 L 89.769531 29.886719 Z M 89.769531 17.429688 "/>
<path style=" stroke:none;fill-rule:nonzero;fill:rgb(65.141296%,57.684326%,28.713989%);fill-opacity:1;" d="M 102.96875 27.726562 C 105.398438 27.726562 106.207031 26.621094 106.089844 24.054688 C 105.367188 24.414062 104.046875 24.484375 102.9375 24.726562 C 101.796875 24.941406 100.839844 25.324219 100.839844 26.308594 C 100.839844 27.316406 101.828125 27.726562 102.96875 27.726562 M 96.367188 21.269531 C 96.457031 19.636719 97.417969 18.582031 98.796875 17.933594 C 100.179688 17.308594 101.976562 17.070312 103.746094 17.070312 C 107.4375 17.070312 111.007812 17.71875 111.007812 21.246094 L 111.007812 26.695312 C 111.007812 27.75 111.007812 28.902344 111.609375 29.886719 L 106.476562 29.886719 C 106.296875 29.5 106.238281 29.117188 106.179688 28.710938 C 104.859375 29.8125 102.90625 30.246094 101.046875 30.246094 C 98.078125 30.246094 95.738281 29.046875 95.738281 26.476562 C 95.738281 22.421875 101.257812 22.734375 104.796875 22.160156 C 105.667969 22.011719 106.148438 21.773438 106.148438 21.003906 C 106.148438 20.070312 104.738281 19.710938 103.6875 19.710938 C 102.277344 19.710938 101.378906 20.214844 101.136719 21.269531 Z M 96.367188 21.269531 "/>
<path style=" stroke:none;fill-rule:nonzero;fill:rgb(65.141296%,57.684326%,28.713989%);fill-opacity:1;" d="M 65.285156 36.839844 L 58.894531 36.839844 L 58.894531 50.136719 L 53.316406 50.136719 L 53.316406 36.839844 L 46.925781 36.839844 L 46.925781 33 L 65.285156 33 Z M 65.285156 36.839844 "/>
<path style=" stroke:none;fill-rule:nonzero;fill:rgb(65.141296%,57.684326%,28.713989%);fill-opacity:1;" d="M 72.210938 42.625 C 72.121094 41.230469 70.894531 40.078125 69.183594 40.078125 C 67.382812 40.078125 66.183594 41.109375 65.882812 42.625 Z M 65.882812 44.902344 C 65.972656 46.609375 67.203125 47.734375 69.363281 47.734375 C 70.59375 47.734375 71.792969 47.28125 72.273438 46.367188 L 77.042969 46.367188 C 76.113281 49.25 72.78125 50.496094 69.304688 50.496094 C 64.234375 50.496094 60.785156 48.046875 60.785156 43.871094 C 60.785156 40.054688 64.59375 37.320312 69.183594 37.320312 C 74.761719 37.320312 77.550781 40.679688 77.3125 44.902344 Z M 65.882812 44.902344 "/>
<path style=" stroke:none;fill-rule:nonzero;fill:rgb(65.141296%,57.684326%,28.713989%);fill-opacity:1;" d="M 89.332031 42.238281 C 89.304688 41.183594 88.132812 40.4375 86.84375 40.4375 C 83.992188 40.4375 83.542969 42.382812 83.542969 44.113281 C 83.542969 45.71875 84.414062 47.375 86.574219 47.375 C 88.34375 47.375 89.242188 46.558594 89.484375 45.238281 L 94.433594 45.238281 C 93.984375 48.574219 90.742188 50.496094 86.601562 50.496094 C 81.921875 50.496094 78.445312 47.929688 78.445312 44.113281 C 78.445312 40.152344 81.59375 37.320312 86.601562 37.320312 C 90.472656 37.320312 93.921875 38.953125 94.28125 42.238281 Z M 89.332031 42.238281 "/>
<path style=" stroke:none;fill-rule:nonzero;fill:rgb(65.141296%,57.684326%,28.713989%);fill-opacity:1;" d="M 95.476562 33 L 100.578125 33 L 100.578125 39.382812 L 100.636719 39.382812 C 101.414062 38.109375 103.515625 37.320312 105.375 37.320312 C 110.566406 37.320312 110.984375 40.34375 110.984375 42.144531 L 110.984375 50.136719 L 105.886719 50.136719 L 105.886719 44.113281 C 105.886719 42.40625 106.125 40.679688 103.335938 40.679688 C 101.414062 40.679688 100.578125 41.976562 100.578125 43.34375 L 100.578125 50.136719 L 95.476562 50.136719 Z M 95.476562 33 "/>
<path style=" stroke:none;fill-rule:nonzero;fill:rgb(65.141296%,57.684326%,28.713989%);fill-opacity:1;" d="M 131.261719 56.589844 C 131.496094 56.589844 131.820312 56.550781 131.820312 56.207031 C 131.820312 55.890625 131.578125 55.824219 131.324219 55.824219 L 130.847656 55.824219 L 130.847656 56.589844 Z M 130.765625 55.746094 L 131.332031 55.746094 C 131.71875 55.746094 131.898438 55.917969 131.898438 56.207031 C 131.898438 56.5 131.691406 56.636719 131.449219 56.65625 L 131.980469 57.464844 L 131.878906 57.464844 L 131.363281 56.664062 C 131.324219 56.667969 131.285156 56.667969 131.238281 56.667969 L 130.847656 56.667969 L 130.847656 57.464844 L 130.765625 57.464844 Z M 131.269531 57.992188 C 132.054688 57.992188 132.6875 57.359375 132.6875 56.578125 C 132.6875 55.792969 132.054688 55.160156 131.269531 55.160156 C 130.488281 55.160156 129.855469 55.792969 129.855469 56.578125 C 129.855469 57.359375 130.488281 57.992188 131.269531 57.992188 M 131.269531 55.082031 C 132.097656 55.082031 132.765625 55.75 132.765625 56.578125 C 132.765625 57.402344 132.097656 58.070312 131.269531 58.070312 C 130.445312 58.070312 129.777344 57.402344 129.777344 56.578125 C 129.777344 55.75 130.445312 55.082031 131.269531 55.082031 "/>
<path style=" stroke:none;fill-rule:nonzero;fill:rgb(65.141296%,57.684326%,28.713989%);fill-opacity:1;" d="M 118.226562 53.355469 L 122.582031 53.355469 L 118.226562 37.003906 Z M 123.625 54.15625 L 117.425781 54.15625 L 117.425781 33.953125 L 118.210938 33.847656 Z M 123.625 54.15625 "/>
<path style=" stroke:none;fill-rule:nonzero;fill:rgb(65.141296%,57.684326%,28.713989%);fill-opacity:1;" d="M 123.625 53.355469 L 127.984375 53.355469 L 127.984375 37.003906 Z M 128.785156 54.15625 L 122.582031 54.15625 L 128 33.847656 L 128.785156 33.953125 Z M 128.785156 54.15625 "/>
<path style=" stroke:none;fill-rule:nonzero;fill:rgb(65.141296%,57.684326%,28.713989%);fill-opacity:1;" d="M 125.34375 43.675781 L 123.105469 10.046875 L 120.863281 43.675781 L 120.0625 43.621094 L 122.703125 4.007812 L 123.503906 4.007812 L 126.144531 43.621094 Z M 125.34375 43.675781 "/>
<path style=" stroke:none;fill-rule:nonzero;fill:rgb(65.141296%,57.684326%,28.713989%);fill-opacity:1;" d="M 118.226562 57.402344 L 127.984375 57.402344 L 127.984375 56.183594 L 118.226562 56.183594 Z M 128.785156 58.203125 L 117.425781 58.203125 L 117.425781 55.382812 L 128.785156 55.382812 Z M 128.785156 58.203125 "/>
</g>
</svg>
